<svg version="1.1" id="Layer_1" xmlns="http://www.w3.org/2000/svg" xmlns:xlink="http://www.w3.org/1999/xlink" x="0px" y="0px" viewBox="0 0 53.9 41" style="enable-background:new 0 0 53.9 41;" xml:space="preserve">
 <style type="text/css">
  .st0{fill:#FFFFFF;}
	.st1{fill:#00A551;}
	.st2{fill:#F05A22;}
 </style>
 <g>
  <path class="st0" d="M13.3,24.6c1.8,5.6,7,9.7,13.2,9.7c7.7,0,13.9-6.2,13.9-13.9c0-7.4-5.8-13.4-13-13.9L13.3,24.6z">
  </path>
  <path class="st0" d="M14.5,25.7c2.1,4.8,6.7,7.9,12,7.9c7.2,0,13.1-5.9,13.1-13.1C39.6,14,35,8.6,28.7,7.6L14.5,25.7z">
  </path>
  <path class="st1" d="M32.1,0L0,41h39.6L53.9,0H32.1z M26.5,34.9c-6.1,0-11.4-3.7-13.5-9.4v0L28.1,6.2h0c7.2,0.8,12.8,7,12.8,14.3
		C40.9,28.4,34.5,34.9,26.5,34.9">
  </path>
  <path class="st2" d="M28.1,6.2l-0.3,0.4l-0.3,0.3L27.5,7l-0.2,0.3c1.6,0.8,3,1.8,4.1,3.1c-0.6,0.4-1.2,0.8-1.8,1.1
		C29,10,28.2,8.6,27.3,7.3L27,7.7c0.9,1.2,1.6,2.5,2.2,3.9c-0.8,0.3-1.6,0.4-2.4,0.4V8l-0.5,0.6V12c-0.8,0-1.6-0.2-2.3-0.4
		c0,0-1.1,1.4-1.1,1.4c-0.3,1-0.6,2-0.8,3c-0.4-0.1-0.9-0.2-1.3-0.3l-0.3,0.4c0.5,0.1,1,0.2,1.5,0.3c-0.2,1.2-0.3,2.5-0.4,3.8h-4
		l0-0.6l-0.8,1h0.3c0,1.7,0.3,3.4,0.9,4.9c-1.1,0.4-2.2,0.9-3.3,1.5c-0.4-0.8-0.8-1.6-1.1-2.4l-0.3,0.4L13,25.5
		c2.1,5.6,7.4,9.4,13.5,9.4c7.9,0,14.4-6.5,14.4-14.4C40.9,13.1,35.4,7,28.1,6.2 M40,20.2h-4.1c0-1.7-0.3-3.3-0.9-4.9
		c1.1-0.4,2.2-0.9,3.3-1.5C39.4,15.7,40,17.9,40,20.2 M22,20.7h4.3v3.4c-1.3,0-2.6,0.1-3.9,0.4C22.1,23.2,22,22,22,20.7 M26.7,16.9
		c1.3,0,2.6-0.1,3.9-0.4c0.2,1.2,0.3,2.5,0.3,3.7h-4.3V16.9z M31,20.7c0,1.3-0.1,2.5-0.3,3.7c-1.3-0.2-2.6-0.3-3.9-0.3v-3.4H31z
		 M22.4,24.9c1.3-0.2,2.5-0.3,3.8-0.3v4c-0.9,0-1.8,0.2-2.6,0.5C23.1,27.7,22.7,26.3,22.4,24.9 M23.2,29.1c-0.7,0.3-1.4,0.7-2,1.1
		c-1.2-1.3-2.1-2.8-2.7-4.4c1.1-0.4,2.3-0.7,3.4-0.9C22.3,26.4,22.7,27.8,23.2,29.1 M26.7,24.5c1.3,0,2.6,0.1,3.8,0.3
		c-0.3,1.4-0.7,2.8-1.2,4.1c-0.8-0.3-1.7-0.4-2.6-0.5V24.5z M31,25c1.2,0.2,2.3,0.5,3.4,0.9c-0.6,1.6-1.6,3.1-2.7,4.4
		c-0.6-0.5-1.3-0.9-2-1.2C30.3,27.8,30.7,26.4,31,25 M31.1,24.5c0.2-1.2,0.3-2.5,0.3-3.8h4c0,1.7-0.3,3.2-0.9,4.7
		C33.5,25,32.3,24.7,31.1,24.5 M31.5,20.2c0-1.3-0.1-2.6-0.4-3.8c1.2-0.2,2.4-0.5,3.5-0.9c0.5,1.5,0.8,3.1,0.9,4.7H31.5z M38.1,13.5
		c-1,0.6-2.1,1-3.2,1.4c-0.7-1.7-1.6-3.2-2.8-4.5c0.5-0.4,1-1,1.4-1.5C35.4,10,36.9,11.6,38.1,13.5 M27.8,7c1.9,0.2,3.7,0.8,5.3,1.7
		c-0.4,0.5-0.8,1-1.3,1.4C30.6,8.8,29.3,7.8,27.8,7 M31.7,10.7c1.1,1.3,2.1,2.8,2.7,4.4c-1.1,0.4-2.3,0.7-3.4,0.9
		c-0.3-1.4-0.7-2.8-1.3-4.2C30.5,11.5,31.1,11.1,31.7,10.7 M29.3,12c0.5,1.3,1,2.7,1.2,4.1c-1.3,0.2-2.5,0.3-3.8,0.3v-3.9
		C27.6,12.4,28.5,12.3,29.3,12 M23.7,12c0.8,0.3,1.7,0.5,2.6,0.5v4c-1.3,0-2.6-0.1-3.8-0.3C22.7,14.7,23.1,13.3,23.7,12 M22.4,16.5
		c1.3,0.2,2.6,0.3,3.9,0.4v3.4H22C22,19,22.2,17.7,22.4,16.5 M17.5,20.7h4c0,1.3,0.1,2.6,0.3,3.8c-1.2,0.2-2.4,0.5-3.5,0.9
		C17.9,24,17.6,22.4,17.5,20.7 M18.1,26c0.7,1.7,1.6,3.2,2.8,4.5c-0.5,0.4-1,0.9-1.4,1.5c-1.9-1.1-3.5-2.7-4.6-4.6
		C15.9,26.9,17,26.4,18.1,26 M19.9,32.3c0.4-0.5,0.8-1,1.3-1.4c1.1,1.2,2.5,2.2,4,3C23.3,33.8,21.5,33.2,19.9,32.3 M21.6,30.6
		c0.6-0.4,1.2-0.8,1.9-1.1c0.6,1.5,1.4,2.8,2.4,4.2C24.2,32.9,22.8,31.9,21.6,30.6 M26.3,33.6c-1-1.3-1.8-2.7-2.4-4.2
		c0.8-0.3,1.6-0.4,2.4-0.4V33.6z M26.7,29c0.8,0,1.6,0.2,2.4,0.4c-0.6,1.5-1.5,2.9-2.4,4.2V29z M29.6,29.6c0.7,0.3,1.3,0.6,1.9,1.1
		c-1.2,1.3-2.6,2.3-4.2,3.1C28.2,32.4,29,31,29.6,29.6 M27.8,33.9c1.5-0.8,2.9-1.8,4-3c0.5,0.4,0.9,0.9,1.3,1.4
		C31.5,33.2,29.7,33.8,27.8,33.9 M33.5,32.1c-0.4-0.6-0.9-1.1-1.4-1.5c1.2-1.3,2.1-2.9,2.8-4.5c1.1,0.4,2.2,0.9,3.2,1.4
		C37,29.3,35.4,30.9,33.5,32.1 M38.3,27.1c-1.1-0.6-2.1-1.1-3.3-1.5c0.5-1.5,0.8-3.2,0.9-4.9H40C40,23,39.4,25.2,38.3,27.1">
  </path>
  <polygon class="st0" points="27.9,23.7 31.3,25.3 29.7,21.8 34.1,20.7 34.1,20.2 29.7,19.1 31.4,15.6 27.9,17.2 26.8,11 26.2,11 
		25.1,17.2 21.6,15.6 23.3,19.1 18.9,20.2 18.9,20.7 23.3,21.8 21.7,25.3 25.1,23.7 26.2,30 26.8,30 	">
  </polygon>
  <polygon class="st1" points="26.5,11.3 27.7,17.7 30.7,16.3 29.3,19.3 33.9,20.5 29.3,21.6 30.7,24.6 27.7,23.2 26.5,29.6 
		25.4,23.2 22.4,24.6 23.7,21.6 19.2,20.5 23.7,19.3 22.3,16.3 25.4,17.7 	">
  </polygon>
 </g>
</svg>