<?xml version="1.0" encoding="UTF-8"?>
<svg id="Layer_1" xmlns="http://www.w3.org/2000/svg" version="1.1" viewBox="0 0 1000 1000">
  <!-- Generator: Adobe Illustrator 29.1.0, SVG Export Plug-In . SVG Version: 2.1.0 Build 142)  -->
  <defs>
    <style>
      .st0 {
        fill: #040000;
        stroke: #fff;
        stroke-miterlimit: 10;
      }

      .st1 {
        fill: #fff;
      }
    </style>
  </defs>
  <rect class="st0" width="1000" height="1000"/>
  <path class="st1" d="M244.7,752.4c0-23,13.1-45.4,34.4-70.5l-122.9-77.7c-7.7-3.4-7.6-8.1-3.1-13.7l26-22.2c4.7-2.9,9.7-4.2,15.2-2.7l151.6,25.6,126.4-136.8L177.3,254.9c-7.5-4.4-8.1-9.3-.4-15.1l42.6-34,384.5,108.1,113.6-121.5c38.1-33,75.1-47.7,103.6-40.7,15.7,3.9,21.2,8.5,26,23.2,9.4,28.8-5.2,67.6-39.6,107.4l-121.5,113.6,108.1,384.5-34,42.6c-5.8,7.6-10.7,7-15.1-.4l-199.6-294.9-136.8,126.3,25.6,151.6c1.5,5.4.3,10.4-2.7,15.2l-22.2,26c-5.5,4.5-10.3,4.7-13.7-3.1l-77.7-122.9c-25.2,21.3-47.7,34.4-70.8,34.4-2.1,0-2.6-.8-2.6-2.8h0Z"/>
</svg>