<svg version="1.1" id="Layer_1" xmlns="http://www.w3.org/2000/svg" xmlns:xlink="http://www.w3.org/1999/xlink" x="0px" y="0px" viewBox="0 0 64 63.9" style="enable-background:new 0 0 64 63.9;" xml:space="preserve">
 <style type="text/css">
  .st0{fill:#CC0000;}
 </style>
 <path class="st0" d="M63.9,34.8c0.2-2.4,0.2-4.7-0.2-7.1c0,0,0,0-0.1,0c-1,4.3-3.5,8.1-7,10.8c0,0,0,0-0.1,0c0,0,0,0,0-0.1
	c3.7-3.9,6-8.9,6.5-14.3c-0.7-2.8-1.8-5.5-3.2-8c0,0-0.1,0,0,0c0.9,6.4-1.2,12.9-5.5,17.7c0,0,0,0-0.1,0c0,0,0,0,0-0.1
	c4.2-6.1,5.6-13.7,3.6-20.8C47.2-1.2,27.2-4.2,12.9,6.3c-2.5,1.9-4.8,4.1-6.7,6.7c-2,7.1-0.6,14.8,3.6,20.8c0,0,0,0,0,0.1
	c0,0,0,0-0.1,0c0,0,0,0,0,0c-4.4-4.8-6.4-11.3-5.5-17.7c0,0,0,0,0,0c-1.4,2.5-2.5,5.2-3.3,8c0.4,5.4,2.7,10.4,6.5,14.3
	c0,0,0,0,0,0.1c0,0,0,0,0,0c-3.5-2.7-6-6.5-7-10.8c0,0,0,0-0.1,0C0,30-0.1,32.4,0.1,34.8C1.3,38,3.3,40.9,6,43.2c0,0,0,0,0,0.1
	c0,0,0,0,0,0c-2-1.2-3.8-2.8-5.2-4.8c0,0-0.1,0,0,0c3.7,17.3,20.6,28.4,37.9,24.7C51,60.6,60.7,50.9,63.3,38.5c0,0,0,0,0,0
	c-1.4,1.9-3.2,3.5-5.2,4.8c0,0,0,0-0.1,0c0,0,0,0,0,0C60.7,41,62.7,38,63.9,34.8z M20.1,55.6c-1,0-2-0.1-3-0.3l0.7-1.9
	c2,0.2,3.7,0.1,4.4-1.7l2.1-5.5h4.4l-2.3,6.1C25.2,55.4,22.2,55.6,20.1,55.6z M35.1,55.3L35,53.5H31l-1.5,1.8H26l7.3-8.5
	c0.3-0.4,0.8-0.6,1.3-0.7h3.9l0.9,9.1H35.1z M50.5,55.3h-9.9l3.5-9.1h4.4l-2.8,7.2h5.5L50.5,55.3z M46.5,36
	c-6.5,6.4-16.3,2.3-15.3-5.5c0.8-6,8.2-12,13.8-15.3c0,0,0,0,0-0.1c0,0,0,0,0,0c-1.1-1.1-2.2-2.3-3.2-3.5c-2.2-2.8-6.2-3.3-9-1.1
	c-0.5,0.4-0.9,0.8-1.2,1.3l-16.1,1.5c0,0,0,0,0,0.1c0,0,0,0,0,0l17.3,1c3.1,0.2,4.1,2.9,1.1,5.2c-11,8.3-12.9,17.1-10.5,24
	c0,0,0,0,0,0.1c0,0,0,0,0,0c-1-1.5-1.8-3.2-2.2-5c-9.6-6.1-12.4-18.8-6.3-28.4S33.5-2.1,43.1,4s12.4,18.8,6.3,28.4
	C48.5,33.7,47.6,34.9,46.5,36z M32.5,51.8h2.5l-0.1-2.9L32.5,51.8z">
 </path>
</svg>