<svg version="1.1" id="Layer_1" xmlns="http://www.w3.org/2000/svg" xmlns:xlink="http://www.w3.org/1999/xlink" x="0px" y="0px" viewBox="0 0 60.8 48.4" style="enable-background:new 0 0 60.8 48.4;" xml:space="preserve">
 <style type="text/css">
  .st0{fill:#996A4E;}
	.st1{fill:#84754E;}
 </style>
 <g>
  <g>
   <path class="st0" d="M25.6,20.8l17-17C44.5,2,46.5,0.9,49.1,0H30.8c-0.5,0-1,0.2-1.5,0.2H29c-1.7,0.5-3.1,1.2-4.4,2.2
			c-0.3,0.3-0.7,0.5-1,0.9l-20.6,21H17C20.3,24.2,23.3,23,25.6,20.8z">
   </path>
   <path class="st1" d="M23.5,27.8L6.6,44.6c-1.7,1.7-3.9,3.1-6.6,3.7h18.1c0.5,0,1-0.2,1.5-0.2h0.3c1.5-0.5,3.1-1.2,4.4-2.2
			c0.3-0.3,0.7-0.5,1-0.9l21-21H32.2C29,24.2,25.9,25.6,23.5,27.8z">
   </path>
   <path class="st0" d="M53.3,13.3c0-0.2,0-0.2,0.2-0.2c1.9-0.5,7.3-1.2,7.3-1.2s-5.5-0.3-7.3-0.9l-0.2-0.2c0.2-0.7,1.9-2.9,1.9-2.9
			l-2.9,2c0,0-0.2,0-0.2-0.2c-0.5-2.9-1-8.2-1-8.2s-0.3,5.3-1,8.2c0,0,0,0.2-0.2,0.2L47,8c0,0,1.7,2.2,2,2.9c0,0,0,0.2-0.2,0.2
			c-1.9,0.5-7.3,1-7.3,1s5.5,0.5,7.3,1.2l0.2,0.2c-0.2,0.7-1.9,2.7-1.9,2.7l2.9-1.7c0,0,0.2,0,0.2,0.2c0.5,2.9,1,8.2,1,8.2
			s0.3-5.3,1-8.2c0,0,0-0.2,0.2-0.2l2.9,1.7C55.4,16,53.7,14,53.3,13.3z">
   </path>
  </g>
 </g>
</svg>